<?xml version="1.0" encoding="UTF-8" standalone="no"?>
<svg
   xmlns:dc="http://purl.org/dc/elements/1.1/"
   xmlns:cc="http://creativecommons.org/ns#"
   xmlns:rdf="http://www.w3.org/1999/02/22-rdf-syntax-ns#"
   xmlns:svg="http://www.w3.org/2000/svg"
   xmlns="http://www.w3.org/2000/svg"
   xmlns:sodipodi="http://sodipodi.sourceforge.net/DTD/sodipodi-0.dtd"
   xmlns:inkscape="http://www.inkscape.org/namespaces/inkscape"
   version="1.1"
   id="Capa_1"
   x="0px"
   y="0px"
   viewBox="0 0 490.667 490.667"
   style="enable-background:new 0 0 490.667 490.667;"
   xml:space="preserve"
   sodipodi:docname="bomb.svg"
   inkscape:version="1.0.2-2 (e86c870879, 2021-01-15)"><metadata
   id="metadata79"><rdf:RDF><cc:Work
       rdf:about=""><dc:format>image/svg+xml</dc:format><dc:type
         rdf:resource="http://purl.org/dc/dcmitype/StillImage" /></cc:Work></rdf:RDF></metadata><defs
   id="defs77" /><sodipodi:namedview
   pagecolor="#ffffff"
   bordercolor="#666666"
   borderopacity="1"
   objecttolerance="10"
   gridtolerance="10"
   guidetolerance="10"
   inkscape:pageopacity="0"
   inkscape:pageshadow="2"
   inkscape:window-width="1920"
   inkscape:window-height="1017"
   id="namedview75"
   showgrid="false"
   inkscape:zoom="0.6124732"
   inkscape:cx="122.92048"
   inkscape:cy="309.90212"
   inkscape:window-x="-8"
   inkscape:window-y="-8"
   inkscape:window-maximized="1"
   inkscape:current-layer="Capa_1"
   inkscape:document-rotation="0" />
<path
   style="fill:#ffc107;stroke-width:0.580727"
   d="m 362.40416,159.81798 c -0.96866,-0.002 -1.92337,-0.23114 -2.78749,-0.66899 -13.31782,-6.70219 -51.0047,-24.10891 -65.35098,-24.10891 -10.92987,-1.84381 -21.60596,4.42398 -25.32262,14.86662 -1.52789,3.06101 -5.24804,4.30378 -8.30905,2.7753 -2.87925,-1.4373 -4.17832,-4.83978 -2.98959,-7.82994 5.60055,-14.9822 20.74824,-24.16465 36.62126,-22.20062 19.82197,0 65.75981,22.84523 70.92596,25.44688 3.05172,1.54648 4.27182,5.27416 2.72536,8.3253 -1.05286,2.07785 -3.18297,3.3897 -5.51285,3.39436 z"
   id="path2" />
<g
   id="g16"
   transform="matrix(0.58072728,0,0,0.58072728,120.82161,104.06816)">
	<path
   style="fill:#ffd54f"
   d="m 416,160 c -5.891,0 -10.667,-4.776 -10.667,-10.667 V 128 c 0,-5.891 4.776,-10.667 10.667,-10.667 5.891,0 10.667,4.776 10.667,10.667 v 21.333 C 426.667,155.224 421.891,160 416,160 Z"
   id="path4" />
	<path
   style="fill:#ffd54f"
   d="m 416,53.333 c -5.891,0 -10.667,-4.776 -10.667,-10.667 V 21.333 c 0,-5.891 4.776,-10.667 10.667,-10.667 5.891,0 10.667,4.776 10.667,10.667 v 21.333 c 0,5.892 -4.776,10.667 -10.667,10.667 z"
   id="path6" />
	<path
   style="fill:#ffd54f"
   d="m 461.248,141.248 c -2.831,0.005 -5.548,-1.115 -7.552,-3.115 L 438.613,123.05 c -4.093,-4.237 -3.975,-10.99 0.262,-15.083 4.134,-3.993 10.687,-3.993 14.821,0 l 15.083,15.083 c 4.171,4.16 4.179,10.914 0.019,15.085 -2.006,2.011 -4.731,3.139 -7.571,3.134 z"
   id="path8" />
	<path
   style="fill:#ffd54f"
   d="M 480,96 H 458.667 C 452.776,96 448,91.224 448,85.333 c 0,-5.891 4.776,-10.667 10.667,-10.667 H 480 c 5.891,0 10.667,4.776 10.667,10.667 C 490.667,91.224 485.891,96 480,96 Z"
   id="path10" />
	<path
   style="fill:#ffd54f"
   d="m 446.165,65.835 c -5.891,0.011 -10.675,-4.757 -10.686,-10.648 -0.005,-2.84 1.123,-5.565 3.134,-7.571 l 15.083,-15.083 c 4.237,-4.093 10.99,-3.976 15.083,0.262 3.993,4.134 3.993,10.687 0,14.821 l -15.083,15.083 c -1.996,2.002 -4.704,3.129 -7.531,3.136 z"
   id="path12" />
	<path
   style="fill:#ffd54f"
   d="m 370.752,141.248 c -5.891,0.011 -10.675,-4.757 -10.686,-10.648 -0.005,-2.84 1.123,-5.565 3.134,-7.571 l 15.083,-15.083 c 4.093,-4.237 10.845,-4.354 15.083,-0.262 4.237,4.093 4.354,10.845 0.262,15.083 -0.086,0.089 -0.173,0.176 -0.262,0.262 l -15.083,15.083 c -1.996,2.002 -4.704,3.13 -7.531,3.136 z"
   id="path14" />
</g>
<path
   style="fill:#607d8b;stroke-width:0.580727"
   d="m 303.22282,165.18216 c -22.66636,-15.63493 -49.56042,-23.98869 -77.09618,-23.94746 -2.66961,-0.004 -5.0413,1.70385 -5.88452,4.23699 l -10.50593,31.5422 c -0.66784,2.00118 -0.27062,4.20506 1.05286,5.84734 1.33335,1.61501 3.37751,2.46809 5.46347,2.27936 24.12748,-2.49771 48.28109,4.48147 67.35798,19.46306 1.09467,0.86122 2.44778,1.32813 3.84035,1.32582 2.50352,0.002 4.76196,-1.50409 5.72365,-3.81597 l 12.26496,-29.46087 c 1.11675,-2.70154 0.19221,-5.8154 -2.21664,-7.47047 z"
   id="path18" />
<path
   style="fill:#455a64;stroke-width:0.580727"
   d="m 226.12664,172.20663 c -58.1581,0 -105.30503,47.14692 -105.30503,105.30559 0,58.15869 47.14693,105.30503 105.30503,105.30503 58.15809,0 105.305,-47.14694 105.305,-105.30503 -0.068,-58.13021 -47.17479,-105.23707 -105.305,-105.30559 z"
   id="path20" />
<path
   style="fill:#607d8b;stroke-width:0.580727"
   d="m 151.79354,283.70627 c -3.42107,0 -6.19461,-2.77356 -6.19461,-6.19462 0.0551,-44.45119 36.07652,-80.47253 80.52771,-80.52713 3.42105,0 6.1946,2.77356 6.1946,6.19462 0,3.42106 -2.77355,6.19462 -6.1946,6.19462 -37.61197,0.0477 -68.09087,30.52593 -68.13849,68.13846 0,3.42107 -2.77356,6.19405 -6.19461,6.19405 z"
   id="path22" />
<path
   d="m 226.12664,382.81725 c -58.1581,0 -105.30503,-47.14694 -105.30503,-105.30503 0,-58.15809 47.14693,-105.30501 105.30503,-105.30501 58.15809,0 105.305,47.14692 105.305,105.30501 -0.068,58.13023 -47.17479,105.23651 -105.305,105.30503 z m 0,-198.22138 c -51.31655,0 -92.91638,41.59981 -92.91638,92.91635 0,51.31655 41.59983,92.91637 92.91638,92.91637 51.31654,0 92.91635,-41.59982 92.91635,-92.91637 -0.0546,-51.2939 -41.62245,-92.86177 -92.91635,-92.91635 z"
   id="path24"
   style="stroke-width:0.580727" />
<path
   d="m 151.79354,283.70627 c -3.42107,0 -6.19461,-2.77356 -6.19461,-6.19462 0.0551,-44.45119 36.07652,-80.47253 80.52771,-80.52713 3.42105,0 6.1946,2.77356 6.1946,6.19462 0,3.42106 -2.77355,6.19462 -6.1946,6.19462 -37.61197,0.0477 -68.09087,30.52593 -68.13849,68.13846 0,3.42107 -2.77356,6.19405 -6.19461,6.19405 z"
   id="path26"
   style="stroke-width:0.580727" />
<path
   d="m 362.40416,159.81798 c -0.96923,0.001 -1.92453,-0.22823 -2.78749,-0.66899 -13.31782,-6.70219 -51.0047,-24.10891 -65.35098,-24.10891 -10.92871,-1.83858 -21.6019,4.42747 -25.32262,14.86662 -1.49653,3.07611 -5.20389,4.35662 -8.28001,2.86009 -2.94139,-1.43091 -4.26311,-4.9025 -3.01863,-7.92693 5.60055,-14.97987 20.74997,-24.15885 36.62126,-22.18842 19.82197,0 65.75981,22.83244 70.92596,25.44688 3.05172,1.54648 4.27182,5.27416 2.72536,8.3253 -1.05286,2.07785 -3.18297,3.3897 -5.51285,3.39436 z"
   id="path28"
   style="stroke-width:0.580727" />
<path
   d="m 362.40416,196.98452 c -3.42107,0 -6.19462,-2.77356 -6.19462,-6.19462 v -12.38865 c 0,-3.42106 2.77355,-6.19462 6.19462,-6.19462 3.42106,0 6.19462,2.77356 6.19462,6.19462 v 12.38865 c 0,3.42106 -2.77356,6.19462 -6.19462,6.19462 z"
   id="path30"
   style="stroke-width:0.580727" />
<path
   d="m 362.40416,135.04008 c -3.42107,0 -6.19462,-2.77355 -6.19462,-6.19461 v -12.38866 c 0,-3.42106 2.77355,-6.19462 6.19462,-6.19462 3.42106,0 6.19462,2.77356 6.19462,6.19462 v 12.38866 c 0,3.42164 -2.77356,6.19461 -6.19462,6.19461 z"
   id="path32"
   style="stroke-width:0.580727" />
<path
   d="m 388.6809,186.09473 c -1.64403,0.004 -3.22186,-0.64752 -4.38564,-1.80897 l -8.75912,-8.75912 c -2.37691,-2.46054 -2.30839,-6.38218 0.15216,-8.7591 2.40073,-2.31885 6.20623,-2.31885 8.60696,0 l 8.75911,8.7591 c 2.42221,2.41584 2.42686,6.33806 0.0109,8.76028 -1.16495,1.16784 -2.74742,1.82291 -4.39668,1.81999 z"
   id="path34"
   style="stroke-width:0.580727" />
<path
   d="m 399.5707,159.81798 h -12.38865 c -3.42106,0 -6.19462,-2.77356 -6.19462,-6.19462 0,-3.42107 2.77356,-6.19463 6.19462,-6.19463 h 12.38865 c 3.42106,0 6.19462,2.77356 6.19462,6.19463 0,3.42106 -2.77356,6.19462 -6.19462,6.19462 z"
   id="path36"
   style="stroke-width:0.580727" />
<path
   d="m 379.9218,142.30034 c -3.42107,0.006 -6.19926,-2.76252 -6.20566,-6.18359 -0.004,-1.64926 0.65216,-3.23173 1.82,-4.39668 l 8.75912,-8.75911 c 2.46053,-2.37692 6.38218,-2.30897 8.75911,0.15214 2.31884,2.40073 2.31884,6.20625 0,8.60697 l -8.75911,8.7591 c -1.15914,1.16262 -2.73174,1.8171 -4.37346,1.82117 z"
   id="path38"
   style="stroke-width:0.580727" />
<path
   d="m 336.12741,186.09473 c -3.42106,0.006 -6.19926,-2.76253 -6.20565,-6.18359 -0.004,-1.64927 0.65215,-3.23176 1.82,-4.39668 l 8.75911,-8.75912 c 2.37692,-2.46055 6.29799,-2.52848 8.7591,-0.15215 2.46055,2.37693 2.5285,6.29799 0.15216,8.75911 -0.0499,0.0517 -0.10044,0.10215 -0.15216,0.15216 l -8.7591,8.75911 c -1.15914,1.16261 -2.73174,1.81767 -4.37346,1.82116 z"
   id="path40"
   style="stroke-width:0.580727" />
<path
   d="m 287.43923,205.92947 c -1.39258,0.002 -2.74568,-0.4646 -3.84035,-1.32582 -19.07805,-14.9996 -43.24501,-21.984 -67.38294,-19.47525 -2.08713,0.19743 -4.13593,-0.65739 -5.46348,-2.27936 -1.31941,-1.63997 -1.71605,-3.83746 -1.05286,-5.83515 l 10.51813,-31.5422 c 0.8467,-2.54127 3.23059,-4.25093 5.90948,-4.23699 27.53519,-0.0365 54.42751,8.31717 77.09561,23.94746 2.39085,1.651 3.31305,4.74221 2.21779,7.4333 l -12.26496,29.4481 c -0.74449,1.79097 -2.28515,3.13012 -4.16264,3.61736 -0.51221,0.14982 -1.04066,0.23286 -1.57378,0.24855 z m -61.31259,-33.72284 c 20.89107,-0.0627 41.31641,6.17197 58.61163,17.8893 l 7.27246,-17.46827 c -18.44158,-11.64823 -39.64916,-18.18141 -61.4485,-18.92997 l -6.16965,18.50894 z"
   id="path42"
   style="stroke-width:0.580727" />
<g
   id="g44">
</g>
<g
   id="g46">
</g>
<g
   id="g48">
</g>
<g
   id="g50">
</g>
<g
   id="g52">
</g>
<g
   id="g54">
</g>
<g
   id="g56">
</g>
<g
   id="g58">
</g>
<g
   id="g60">
</g>
<g
   id="g62">
</g>
<g
   id="g64">
</g>
<g
   id="g66">
</g>
<g
   id="g68">
</g>
<g
   id="g70">
</g>
<g
   id="g72">
</g>
</svg>
