<?xml version="1.0" encoding="UTF-8" standalone="no"?>
<svg
   xmlns:dc="http://purl.org/dc/elements/1.1/"
   xmlns:cc="http://creativecommons.org/ns#"
   xmlns:rdf="http://www.w3.org/1999/02/22-rdf-syntax-ns#"
   xmlns:svg="http://www.w3.org/2000/svg"
   xmlns="http://www.w3.org/2000/svg"
   xmlns:sodipodi="http://sodipodi.sourceforge.net/DTD/sodipodi-0.dtd"
   xmlns:inkscape="http://www.inkscape.org/namespaces/inkscape"
   id="Capa_1"
   enable-background="new 0 0 490.278 490.278"
   height="512"
   viewBox="0 0 490.278 490.278"
   width="512"
   version="1.1"
   sodipodi:docname="calculator.svg"
   inkscape:version="1.0.2-2 (e86c870879, 2021-01-15)">
  <metadata
     id="metadata45">
    <rdf:RDF>
      <cc:Work
         rdf:about="">
        <dc:format>image/svg+xml</dc:format>
        <dc:type
           rdf:resource="http://purl.org/dc/dcmitype/StillImage" />
      </cc:Work>
    </rdf:RDF>
  </metadata>
  <defs
     id="defs43" />
  <sodipodi:namedview
     pagecolor="#ffffff"
     bordercolor="#666666"
     borderopacity="1"
     objecttolerance="10"
     gridtolerance="10"
     guidetolerance="10"
     inkscape:pageopacity="0"
     inkscape:pageshadow="2"
     inkscape:window-width="1920"
     inkscape:window-height="1017"
     id="namedview41"
     showgrid="false"
     inkscape:zoom="0.83007813"
     inkscape:cx="73.760072"
     inkscape:cy="278.41318"
     inkscape:window-x="-8"
     inkscape:window-y="-8"
     inkscape:window-maximized="1"
     inkscape:current-layer="Capa_1"
     inkscape:document-rotation="0" />
  <g
     id="g38"
     transform="matrix(0.56218403,0,0,0.61250399,114.53815,92.519576)">
    <path
       d="m 86.15,0 h 317.978 c 10.381,0 18.796,8.415 18.796,18.796 v 452.686 c 0,10.381 -8.415,18.796 -18.796,18.796 H 86.15 c -10.381,0 -18.796,-8.415 -18.796,-18.796 V 18.796 C 67.354,8.415 75.769,0 86.15,0 Z"
       fill="#62667c"
       id="path2" />
    <path
       d="M 97.373,33.386 H 392.899 V 144.041 H 97.373 Z"
       fill="#69b0ee"
       id="path4" />
    <g
       fill="#dbd8dd"
       id="g12">
      <path
         d="m 103.115,183.766 h 35.507 c 3.178,0 5.753,2.576 5.753,5.753 v 35.507 c 0,3.178 -2.576,5.753 -5.753,5.753 h -35.507 c -3.178,0 -5.753,-2.576 -5.753,-5.753 v -35.507 c 0,-3.177 2.575,-5.753 5.753,-5.753 z"
         id="path6" />
      <path
         d="m 185.96,183.766 h 35.507 c 3.178,0 5.753,2.576 5.753,5.753 v 35.507 c 0,3.178 -2.576,5.753 -5.753,5.753 H 185.96 c -3.178,0 -5.753,-2.576 -5.753,-5.753 v -35.507 c 0,-3.177 2.576,-5.753 5.753,-5.753 z"
         id="path8" />
      <path
         d="m 268.8,183.766 h 35.507 c 3.178,0 5.753,2.576 5.753,5.753 v 35.507 c 0,3.178 -2.576,5.753 -5.753,5.753 H 268.8 c -3.178,0 -5.753,-2.576 -5.753,-5.753 v -35.507 c -0.001,-3.177 2.575,-5.753 5.753,-5.753 z"
         id="path10" />
    </g>
    <path
       d="m 351.639,183.766 h 35.507 c 3.178,0 5.753,2.576 5.753,5.753 v 35.507 c 0,3.178 -2.576,5.753 -5.753,5.753 h -35.507 c -3.177,0 -5.753,-2.576 -5.753,-5.753 v -35.507 c -0.001,-3.177 2.575,-5.753 5.753,-5.753 z"
       fill="#2cbfae"
       id="path14" />
    <path
       d="m 103.115,258.17 h 35.507 c 3.178,0 5.753,2.576 5.753,5.753 v 35.507 c 0,3.177 -2.576,5.753 -5.753,5.753 h -35.507 c -3.178,0 -5.753,-2.576 -5.753,-5.753 v -35.507 c 0,-3.177 2.575,-5.753 5.753,-5.753 z"
       fill="#dbd8dd"
       id="path16" />
    <path
       d="m 185.96,258.17 h 35.507 c 3.178,0 5.753,2.576 5.753,5.753 v 35.507 c 0,3.177 -2.576,5.753 -5.753,5.753 H 185.96 c -3.178,0 -5.753,-2.576 -5.753,-5.753 v -35.507 c 0,-3.177 2.576,-5.753 5.753,-5.753 z"
       fill="#dbd8dd"
       id="path18" />
    <path
       d="m 268.8,258.17 h 35.507 c 3.178,0 5.753,2.576 5.753,5.753 v 35.507 c 0,3.177 -2.576,5.753 -5.753,5.753 H 268.8 c -3.178,0 -5.753,-2.576 -5.753,-5.753 v -35.507 c -0.001,-3.177 2.575,-5.753 5.753,-5.753 z"
       fill="#dbd8dd"
       id="path20" />
    <path
       d="m 351.639,258.17 h 35.507 c 3.178,0 5.753,2.576 5.753,5.753 v 35.507 c 0,3.177 -2.576,5.753 -5.753,5.753 h -35.507 c -3.177,0 -5.753,-2.576 -5.753,-5.753 v -35.507 c -0.001,-3.177 2.575,-5.753 5.753,-5.753 z"
       fill="#f6c863"
       id="path22" />
    <path
       d="m 103.115,332.574 h 35.507 c 3.178,0 5.753,2.576 5.753,5.753 v 35.507 c 0,3.178 -2.576,5.753 -5.753,5.753 h -35.507 c -3.178,0 -5.753,-2.576 -5.753,-5.753 v -35.507 c 0,-3.177 2.575,-5.753 5.753,-5.753 z"
       fill="#dbd8dd"
       id="path24" />
    <path
       d="m 185.96,332.574 h 35.507 c 3.178,0 5.753,2.576 5.753,5.753 v 35.507 c 0,3.178 -2.576,5.753 -5.753,5.753 H 185.96 c -3.178,0 -5.753,-2.576 -5.753,-5.753 v -35.507 c 0,-3.177 2.576,-5.753 5.753,-5.753 z"
       fill="#dbd8dd"
       id="path26" />
    <path
       d="m 268.8,332.574 h 35.507 c 3.178,0 5.753,2.576 5.753,5.753 v 35.507 c 0,3.178 -2.576,5.753 -5.753,5.753 H 268.8 c -3.178,0 -5.753,-2.576 -5.753,-5.753 v -35.507 c -0.001,-3.177 2.575,-5.753 5.753,-5.753 z"
       fill="#dbd8dd"
       id="path28" />
    <path
       d="m 351.639,332.574 h 35.507 c 3.178,0 5.753,2.576 5.753,5.753 v 109.911 c 0,3.178 -2.576,5.753 -5.753,5.753 h -35.507 c -3.177,0 -5.753,-2.576 -5.753,-5.753 v -109.91 c -0.001,-3.178 2.575,-5.754 5.753,-5.754 z"
       fill="#ef5261"
       id="path30" />
    <path
       d="m 103.115,406.978 h 35.507 c 3.178,0 5.753,2.576 5.753,5.753 v 35.507 c 0,3.178 -2.576,5.753 -5.753,5.753 h -35.507 c -3.178,0 -5.753,-2.576 -5.753,-5.753 v -35.507 c 0,-3.177 2.575,-5.753 5.753,-5.753 z"
       fill="#dbd8dd"
       id="path32" />
    <path
       d="m 185.96,406.978 h 35.507 c 3.178,0 5.753,2.576 5.753,5.753 v 35.507 c 0,3.178 -2.576,5.753 -5.753,5.753 H 185.96 c -3.178,0 -5.753,-2.576 -5.753,-5.753 v -35.507 c 0,-3.177 2.576,-5.753 5.753,-5.753 z"
       fill="#dbd8dd"
       id="path34" />
    <path
       d="m 268.8,406.978 h 35.507 c 3.178,0 5.753,2.576 5.753,5.753 v 35.507 c 0,3.178 -2.576,5.753 -5.753,5.753 H 268.8 c -3.178,0 -5.753,-2.576 -5.753,-5.753 v -35.507 c -0.001,-3.177 2.575,-5.753 5.753,-5.753 z"
       fill="#dbd8dd"
       id="path36" />
  </g>
</svg>
