<?xml version="1.0" encoding="UTF-8" standalone="no"?>
<svg
   xmlns:dc="http://purl.org/dc/elements/1.1/"
   xmlns:cc="http://creativecommons.org/ns#"
   xmlns:rdf="http://www.w3.org/1999/02/22-rdf-syntax-ns#"
   xmlns:svg="http://www.w3.org/2000/svg"
   xmlns="http://www.w3.org/2000/svg"
   xmlns:sodipodi="http://sodipodi.sourceforge.net/DTD/sodipodi-0.dtd"
   xmlns:inkscape="http://www.inkscape.org/namespaces/inkscape"
   version="1.1"
   id="Capa_1"
   x="0px"
   y="0px"
   viewBox="0 0 512 512"
   style="enable-background:new 0 0 512 512;"
   xml:space="preserve"
   sodipodi:docname="email.svg"
   inkscape:version="1.0.2-2 (e86c870879, 2021-01-15)"><metadata
   id="metadata43"><rdf:RDF><cc:Work
       rdf:about=""><dc:format>image/svg+xml</dc:format><dc:type
         rdf:resource="http://purl.org/dc/dcmitype/StillImage" /></cc:Work></rdf:RDF></metadata><defs
   id="defs41" /><sodipodi:namedview
   pagecolor="#ffffff"
   bordercolor="#666666"
   borderopacity="1"
   objecttolerance="10"
   gridtolerance="10"
   guidetolerance="10"
   inkscape:pageopacity="0"
   inkscape:pageshadow="2"
   inkscape:window-width="1920"
   inkscape:window-height="1017"
   id="namedview39"
   showgrid="false"
   inkscape:zoom="0.83007813"
   inkscape:cx="274.17898"
   inkscape:cy="323.578"
   inkscape:window-x="-8"
   inkscape:window-y="-8"
   inkscape:window-maximized="1"
   inkscape:current-layer="Capa_1"
   inkscape:document-rotation="0" />
<path
   style="fill:#1e88e5;stroke-width:0.555294"
   d="M 377.37412,384.30073 H 128.60235 c -9.80871,0 -17.76941,-7.96069 -17.76941,-17.7694 V 206.60662 h 284.31058 v 159.92471 c 0,9.80871 -7.96069,17.7694 -17.7694,17.7694 z"
   id="path2" />
<path
   style="fill:#64b5f6;stroke-width:0.555294"
   d="m 110.83294,206.60662 136.89554,87.12343 c 1.56372,1.155 3.41174,1.72362 5.25976,1.72362 1.84802,0 3.69603,-0.56862 5.25974,-1.72362 L 395.14352,206.60662 258.31906,101.76709 c -3.16296,-2.363334 -7.4987,-2.363334 -10.66165,0 z"
   id="path4" />

<g
   id="g8">
</g>
<g
   id="g10">
</g>
<g
   id="g12">
</g>
<g
   id="g14">
</g>
<g
   id="g16">
</g>
<g
   id="g18">
</g>
<g
   id="g20">
</g>
<g
   id="g22">
</g>
<g
   id="g24">
</g>
<g
   id="g26">
</g>
<g
   id="g28">
</g>
<g
   id="g30">
</g>
<g
   id="g32">
</g>
<g
   id="g34">
</g>
<g
   id="g36">
</g>
<path
   style="fill:#2196f3;stroke-width:0.555294"
   d="M 377.37412,384.30073 H 128.60235 c -9.96864,0 -17.76941,-7.80076 -17.76941,-17.7694 0,-2.82534 1.35048,-5.49076 3.62496,-7.16108 l 133.27058,-88.84706 c 1.56372,-1.15501 3.41174,-1.72363 5.25976,-1.72363 1.84802,0 3.69603,0.56862 5.25974,1.72363 l 133.27058,88.84706 c 2.2745,1.67032 3.62496,4.33574 3.62496,7.16108 0,9.96864 -7.80076,17.7694 -17.7694,17.7694 z"
   id="path849" /><path
   style="fill:#ffffff;stroke-width:0.469024"
   d="m 138.86485,202.81541 221.73409,0.52161 c 8.88519,0.0208 15.81993,6.28102 15.79666,14.25995 -0.006,2.2614 -1.21652,4.39199 -3.24771,5.72415 l -118.99356,70.83401 c -1.39647,0.92119 -3.04495,1.37244 -4.69213,1.36857 -1.64717,-0.004 -3.29299,-0.46288 -4.68406,-1.39063 L 126.19948,222.74018 c -2.02339,-1.3417 -3.22086,-3.47793 -3.21426,-5.73934 0.0233,-7.97894 6.99443,-14.20633 15.87963,-14.18543 z"
   id="path848" /></svg>
