<?xml version="1.0" encoding="UTF-8" standalone="no"?>
<svg
   xmlns:dc="http://purl.org/dc/elements/1.1/"
   xmlns:cc="http://creativecommons.org/ns#"
   xmlns:rdf="http://www.w3.org/1999/02/22-rdf-syntax-ns#"
   xmlns:svg="http://www.w3.org/2000/svg"
   xmlns="http://www.w3.org/2000/svg"
   xmlns:sodipodi="http://sodipodi.sourceforge.net/DTD/sodipodi-0.dtd"
   xmlns:inkscape="http://www.inkscape.org/namespaces/inkscape"
   version="1.1"
   id="Capa_1"
   x="0px"
   y="0px"
   viewBox="0 0 512 512"
   style="enable-background:new 0 0 512 512;"
   xml:space="preserve"
   sodipodi:docname="email-send.svg"
   inkscape:version="1.0.2-2 (e86c870879, 2021-01-15)"><metadata
   id="metadata49"><rdf:RDF><cc:Work
       rdf:about=""><dc:format>image/svg+xml</dc:format><dc:type
         rdf:resource="http://purl.org/dc/dcmitype/StillImage" /></cc:Work></rdf:RDF></metadata><defs
   id="defs47" /><sodipodi:namedview
   pagecolor="#ffffff"
   bordercolor="#666666"
   borderopacity="1"
   objecttolerance="10"
   gridtolerance="10"
   guidetolerance="10"
   inkscape:pageopacity="0"
   inkscape:pageshadow="2"
   inkscape:window-width="1920"
   inkscape:window-height="1017"
   id="namedview45"
   showgrid="false"
   inkscape:zoom="0.83007813"
   inkscape:cx="304.87694"
   inkscape:cy="376.90675"
   inkscape:window-x="-8"
   inkscape:window-y="-8"
   inkscape:window-maximized="1"
   inkscape:current-layer="Capa_1"
   inkscape:document-rotation="0" />
<path
   style="fill:#b0bec5;stroke-width:0.858824"
   d="M 449.58117,339.35059 H 147.2753 c -15.17026,0 -27.48236,-12.31209 -27.48236,-27.48235 V 92.009411 c 0,-15.170258 12.3121,-27.482352 27.48236,-27.482352 h 302.30587 c 15.17026,0 27.48236,12.312094 27.48236,27.482352 V 311.86824 c 0,15.17026 -12.3121,27.48235 -27.48236,27.48235 z"
   id="path2" />
<path
   style="fill:#cfd8dc;stroke-width:0.858824"
   d="M 449.58117,339.35059 H 147.2753 c -15.4176,0 -27.48236,-12.06475 -27.48236,-27.48235 0,-4.36969 2.08866,-8.49205 5.6064,-11.0754 L 290.29346,177.12226 c 2.41844,-1.78635 5.2766,-2.66578 8.13477,-2.66578 2.85816,0 5.71634,0.87943 8.13478,2.66578 l 164.89412,123.67058 c 3.51773,2.58335 5.6064,6.70571 5.6064,11.0754 0,15.4176 -12.06476,27.48235 -27.48236,27.48235 z"
   id="path4" />
<path
   style="fill:#eceff1;stroke-width:0.858824"
   d="M 449.58117,64.527059 H 147.2753 c -15.4176,0 -27.48236,12.064754 -27.48236,27.482352 0,4.36969 2.08866,8.492049 5.6064,11.075379 l 164.89412,123.6706 c 2.41844,1.78636 5.2766,2.66578 8.13477,2.66578 2.85816,0 5.71634,-0.87942 8.13478,-2.66578 l 164.89412,-123.6706 c 3.51773,-2.58333 5.6064,-6.705689 5.6064,-11.075379 0,-15.417598 -12.06476,-27.482352 -27.48236,-27.482352 z"
   id="path6" />
<path
   style="fill:#1e88e5;stroke-width:0.858824"
   d="M 367.13411,449.28 H 64.828235 c -15.170259,0 -27.482353,-12.31209 -27.482353,-27.48236 V 201.93882 c 0,-15.17025 12.312094,-27.48234 27.482353,-27.48234 H 367.13411 c 15.17026,0 27.48235,12.31209 27.48235,27.48234 v 219.85882 c 0,15.17027 -12.31209,27.48236 -27.48235,27.48236 z"
   id="path8" />
<path
   style="fill:#2196f3;stroke-width:0.858824"
   d="M 367.13411,449.28 H 64.828235 c -15.4176,0 -27.482353,-12.06476 -27.482353,-27.48236 0,-4.36969 2.088658,-8.49204 5.6064,-11.07538 L 207.84639,287.05168 c 2.41845,-1.78636 5.27662,-2.6658 8.13478,-2.6658 2.85817,0 5.71633,0.87944 8.13478,2.6658 l 164.89411,123.67058 c 3.51775,2.58334 5.6064,6.70569 5.6064,11.07538 0,15.4176 -12.06475,27.48236 -27.48235,27.48236 z"
   id="path10" />
<path
   style="fill:#64b5f6;stroke-width:0.858824"
   d="M 367.13411,174.45648 H 64.828235 c -15.4176,0 -27.482353,12.06474 -27.482353,27.48234 0,4.3697 2.088658,8.49206 5.6064,11.07539 L 207.84639,336.6848 c 2.41845,1.78635 5.27662,2.66579 8.13478,2.66579 2.85817,0 5.71633,-0.87944 8.13478,-2.66579 L 389.01006,213.01421 c 3.51775,-2.58333 5.6064,-6.70569 5.6064,-11.07539 0,-15.4176 -12.06475,-27.48234 -27.48235,-27.48234 z"
   id="path12" />
<g
   id="g14">
</g>
<g
   id="g16">
</g>
<g
   id="g18">
</g>
<g
   id="g20">
</g>
<g
   id="g22">
</g>
<g
   id="g24">
</g>
<g
   id="g26">
</g>
<g
   id="g28">
</g>
<g
   id="g30">
</g>
<g
   id="g32">
</g>
<g
   id="g34">
</g>
<g
   id="g36">
</g>
<g
   id="g38">
</g>
<g
   id="g40">
</g>
<g
   id="g42">
</g>
</svg>
