<?xml version="1.0" encoding="UTF-8" standalone="no"?>
<svg
   xmlns:dc="http://purl.org/dc/elements/1.1/"
   xmlns:cc="http://creativecommons.org/ns#"
   xmlns:rdf="http://www.w3.org/1999/02/22-rdf-syntax-ns#"
   xmlns:svg="http://www.w3.org/2000/svg"
   xmlns="http://www.w3.org/2000/svg"
   xmlns:sodipodi="http://sodipodi.sourceforge.net/DTD/sodipodi-0.dtd"
   xmlns:inkscape="http://www.inkscape.org/namespaces/inkscape"
   version="1.1"
   id="Layer_1"
   x="0px"
   y="0px"
   viewBox="0 0 512.004 512.004"
   style="enable-background:new 0 0 512.004 512.004;"
   xml:space="preserve"
   sodipodi:docname="flags.svg"
   inkscape:version="1.0.2-2 (e86c870879, 2021-01-15)"><metadata
   id="metadata41"><rdf:RDF><cc:Work
       rdf:about=""><dc:format>image/svg+xml</dc:format><dc:type
         rdf:resource="http://purl.org/dc/dcmitype/StillImage" /></cc:Work></rdf:RDF></metadata><defs
   id="defs39" /><sodipodi:namedview
   pagecolor="#ffffff"
   bordercolor="#666666"
   borderopacity="1"
   objecttolerance="10"
   gridtolerance="10"
   guidetolerance="10"
   inkscape:pageopacity="0"
   inkscape:pageshadow="2"
   inkscape:window-width="1920"
   inkscape:window-height="1017"
   id="namedview37"
   showgrid="false"
   inkscape:zoom="0.58694925"
   inkscape:cx="265.99237"
   inkscape:cy="276.90218"
   inkscape:window-x="-8"
   inkscape:window-y="-8"
   inkscape:window-maximized="1"
   inkscape:current-layer="Layer_1"
   inkscape:document-rotation="0" />
<path
   style="fill:#e64c3c;stroke-width:0.571031"
   d="m 328.89906,283.7713 c -20.39892,0.41343 -40.11261,-7.39941 -54.68989,-21.6746 -12.68202,-12.33428 -29.79468,-19.05817 -47.48235,-18.64988 -14.88961,-0.19644 -29.44178,4.47632 -41.43341,13.3073 -1.52752,1.1946 -3.40221,1.85014 -5.34314,1.86499 -2.59592,-0.02 -5.05591,-1.15919 -6.75415,-3.12524 -1.68854,-1.94036 -2.60105,-4.43577 -2.57078,-7.00656 v -113.5643 c 0,-2.7775 1.10893,-5.44364 3.075,-7.4097 14.45621,-13.23649 33.42927,-20.44975 53.02648,-20.16252 20.43434,-0.43342 40.18344,7.37428 54.79097,21.67462 12.65176,12.31941 29.72443,19.03817 47.38127,18.64986 12.14298,0.11083 24.10893,-2.92883 34.72953,-8.82072 1.32593,-0.79659 2.83802,-1.23 4.38552,-1.26027 5.33286,0.24726 9.47625,4.743 9.27467,10.08099 v 114.67268 c 0.0959,3.40733 -1.53721,6.62852 -4.33469,8.56889 -13.08573,8.56488 -28.41905,13.04061 -44.05503,12.85446 z"
   id="path2" />
<path
   style="fill:#000000;stroke-width:0.571031"
   d="m 165.58486,107.35135 v 0 c 5.56981,0 10.08097,4.51114 10.08097,10.08098 V 389.6227 c 0,5.56985 -4.51116,10.08098 -10.08097,10.08098 v 0 c -5.56985,0 -10.08099,-4.51113 -10.08099,-10.08098 V 117.43233 c 0,-5.56469 4.51114,-10.08098 10.08099,-10.08098 z"
   id="path4" />
<g
   id="g6">
</g>
<g
   id="g8">
</g>
<g
   id="g10">
</g>
<g
   id="g12">
</g>
<g
   id="g14">
</g>
<g
   id="g16">
</g>
<g
   id="g18">
</g>
<g
   id="g20">
</g>
<g
   id="g22">
</g>
<g
   id="g24">
</g>
<g
   id="g26">
</g>
<g
   id="g28">
</g>
<g
   id="g30">
</g>
<g
   id="g32">
</g>
<g
   id="g34">
</g>
</svg>
