<?xml version="1.0" encoding="UTF-8" standalone="no"?>
<svg
   xmlns:dc="http://purl.org/dc/elements/1.1/"
   xmlns:cc="http://creativecommons.org/ns#"
   xmlns:rdf="http://www.w3.org/1999/02/22-rdf-syntax-ns#"
   xmlns:svg="http://www.w3.org/2000/svg"
   xmlns="http://www.w3.org/2000/svg"
   xmlns:sodipodi="http://sodipodi.sourceforge.net/DTD/sodipodi-0.dtd"
   xmlns:inkscape="http://www.inkscape.org/namespaces/inkscape"
   id="Capa_1"
   enable-background="new 0 0 520 520"
   height="512"
   viewBox="0 0 520 520"
   width="512"
   version="1.1"
   sodipodi:docname="folder.svg"
   inkscape:version="1.0.2-2 (e86c870879, 2021-01-15)">
  <metadata
     id="metadata9">
    <rdf:RDF>
      <cc:Work
         rdf:about="">
        <dc:format>image/svg+xml</dc:format>
        <dc:type
           rdf:resource="http://purl.org/dc/dcmitype/StillImage" />
      </cc:Work>
    </rdf:RDF>
  </metadata>
  <defs
     id="defs7" />
  <sodipodi:namedview
     pagecolor="#ffffff"
     bordercolor="#666666"
     borderopacity="1"
     objecttolerance="10"
     gridtolerance="10"
     guidetolerance="10"
     inkscape:pageopacity="0"
     inkscape:pageshadow="2"
     inkscape:window-width="1920"
     inkscape:window-height="1017"
     id="namedview5"
     showgrid="false"
     inkscape:zoom="0.83007813"
     inkscape:cx="217.72295"
     inkscape:cy="371.56563"
     inkscape:window-x="-8"
     inkscape:window-y="-8"
     inkscape:window-maximized="1"
     inkscape:current-layer="Capa_1" />
  <path
     d="m475 125.016v-35.016c0-24.813-20.187-45-45-45h-210.599l-7.859-12.834c-2.727-4.452-7.571-7.166-12.792-7.166h-153.75c-24.813 0-45 20.187-45 45v380c0 24.813 20.187 45 45 45h430c24.813 0 45-20.187 45-45v-279.984c0-24.813-20.187-45-45-45zm-45-50.016c8.271 0 15 6.729 15 15v35h-176.606l-20.075-32.781-10.546-17.219zm60 375c0 8.271-6.729 15-15 15h-430c-8.271 0-15-6.729-15-15v-380c0-8.271 6.729-15 15-15h145.347l7.858 12.831c.001.001.001.002.002.003l28.917 47.219 20.085 32.797c2.727 4.452 7.571 7.166 12.792 7.166h215c8.271 0 15 6.729 15 15v279.984z"
     id="path2"
     style="fill:#ffffff" />
</svg>
