<?xml version="1.0" encoding="UTF-8" standalone="no"?>
<svg
   xmlns:dc="http://purl.org/dc/elements/1.1/"
   xmlns:cc="http://creativecommons.org/ns#"
   xmlns:rdf="http://www.w3.org/1999/02/22-rdf-syntax-ns#"
   xmlns:svg="http://www.w3.org/2000/svg"
   xmlns="http://www.w3.org/2000/svg"
   xmlns:sodipodi="http://sodipodi.sourceforge.net/DTD/sodipodi-0.dtd"
   xmlns:inkscape="http://www.inkscape.org/namespaces/inkscape"
   version="1.1"
   id="Capa_1"
   x="0px"
   y="0px"
   viewBox="0 0 512 512"
   style="enable-background:new 0 0 512 512;"
   xml:space="preserve"
   sodipodi:docname="night-light.svg"
   inkscape:version="1.0.2-2 (e86c870879, 2021-01-15)"><metadata
   id="metadata55"><rdf:RDF><cc:Work
       rdf:about=""><dc:format>image/svg+xml</dc:format><dc:type
         rdf:resource="http://purl.org/dc/dcmitype/StillImage" /></cc:Work></rdf:RDF></metadata><defs
   id="defs53" /><sodipodi:namedview
   pagecolor="#ffffff"
   bordercolor="#666666"
   borderopacity="1"
   objecttolerance="10"
   gridtolerance="10"
   guidetolerance="10"
   inkscape:pageopacity="0"
   inkscape:pageshadow="2"
   inkscape:window-width="1920"
   inkscape:window-height="1017"
   id="namedview51"
   showgrid="false"
   inkscape:zoom="0.83007813"
   inkscape:cx="130.2161"
   inkscape:cy="283.00023"
   inkscape:window-x="-8"
   inkscape:window-y="-8"
   inkscape:window-maximized="1"
   inkscape:current-layer="Capa_1" />
<g
   id="g18"
   style="fill:#ffffff">
	<g
   id="g16"
   style="fill:#ffffff">
		<g
   id="g14"
   style="fill:#ffffff">
			<path
   d="M142.563,38.198c-2.938-5.104-9.479-6.854-14.563-3.906c-5.104,2.948-6.854,9.469-3.896,14.573l10.667,18.479     c1.958,3.417,5.563,5.333,9.229,5.333c1.813,0,3.646-0.458,5.333-1.427c5.104-2.948,6.854-9.469,3.896-14.573L142.563,38.198z"
   id="path2"
   style="fill:#ffffff" />
			<path
   d="M67.333,134.76l-18.458-10.667c-5.063-2.906-11.583-1.198-14.563,3.906c-2.958,5.094-1.208,11.625,3.896,14.573     l18.458,10.667c1.688,0.969,3.521,1.427,5.333,1.427c3.667,0,7.25-1.906,9.229-5.333C74.188,144.24,72.438,137.708,67.333,134.76     z"
   id="path4"
   style="fill:#ffffff" />
			<path
   d="M56.667,358.76l-18.458,10.667c-5.104,2.948-6.854,9.479-3.896,14.573c1.979,3.427,5.563,5.333,9.229,5.333     c1.813,0,3.667-0.458,5.333-1.427l18.458-10.667c5.104-2.948,6.854-9.479,3.896-14.573     C68.271,357.542,61.688,355.813,56.667,358.76z"
   id="path6"
   style="fill:#ffffff" />
			<path
   d="M149.333,440.75c-5.083-2.906-11.625-1.188-14.563,3.906l-10.667,18.479c-2.958,5.104-1.208,11.625,3.896,14.573     c1.688,0.969,3.521,1.427,5.333,1.427c3.667,0,7.271-1.917,9.229-5.333l10.667-18.479     C156.188,450.219,154.438,443.698,149.333,440.75z"
   id="path8"
   style="fill:#ffffff" />
			<path
   d="M256,0c-5.896,0-10.667,4.771-10.667,10.667v490.667c0,5.896,4.771,10.667,10.667,10.667c141.167,0,256-114.844,256-256     S397.167,0,256,0z"
   id="path10"
   style="fill:#ffffff" />
			<path
   d="M64,266.667v-21.333c0-5.896-4.771-10.667-10.667-10.667H10.667C4.771,234.667,0,239.438,0,245.333v21.333     c0,5.896,4.771,10.667,10.667,10.667h42.667C59.229,277.333,64,272.563,64,266.667z"
   id="path12"
   style="fill:#ffffff" />
		</g>
	</g>
</g>
<g
   id="g20">
</g>
<g
   id="g22">
</g>
<g
   id="g24">
</g>
<g
   id="g26">
</g>
<g
   id="g28">
</g>
<g
   id="g30">
</g>
<g
   id="g32">
</g>
<g
   id="g34">
</g>
<g
   id="g36">
</g>
<g
   id="g38">
</g>
<g
   id="g40">
</g>
<g
   id="g42">
</g>
<g
   id="g44">
</g>
<g
   id="g46">
</g>
<g
   id="g48">
</g>
</svg>
