<?xml version="1.0" encoding="UTF-8" standalone="no"?>
<svg
   xmlns:dc="http://purl.org/dc/elements/1.1/"
   xmlns:cc="http://creativecommons.org/ns#"
   xmlns:rdf="http://www.w3.org/1999/02/22-rdf-syntax-ns#"
   xmlns:svg="http://www.w3.org/2000/svg"
   xmlns="http://www.w3.org/2000/svg"
   xmlns:sodipodi="http://sodipodi.sourceforge.net/DTD/sodipodi-0.dtd"
   xmlns:inkscape="http://www.inkscape.org/namespaces/inkscape"
   id="Capa_1"
   enable-background="new 0 0 512 512"
   height="512"
   viewBox="0 0 512 512"
   width="512"
   version="1.1"
   sodipodi:docname="profile.svg"
   inkscape:version="1.0.2-2 (e86c870879, 2021-01-15)">
  <metadata
     id="metadata73">
    <rdf:RDF>
      <cc:Work
         rdf:about="">
        <dc:format>image/svg+xml</dc:format>
        <dc:type
           rdf:resource="http://purl.org/dc/dcmitype/StillImage" />
      </cc:Work>
    </rdf:RDF>
  </metadata>
  <defs
     id="defs71" />
  <sodipodi:namedview
     pagecolor="#ffffff"
     bordercolor="#666666"
     borderopacity="1"
     objecttolerance="10"
     gridtolerance="10"
     guidetolerance="10"
     inkscape:pageopacity="0"
     inkscape:pageshadow="2"
     inkscape:window-width="1920"
     inkscape:window-height="1017"
     id="namedview69"
     showgrid="false"
     inkscape:zoom="0.83007813"
     inkscape:cx="338.39771"
     inkscape:cy="300.73975"
     inkscape:window-x="-8"
     inkscape:window-y="-8"
     inkscape:window-maximized="1"
     inkscape:current-layer="Capa_1"
     inkscape:document-rotation="0" />
  <g
     id="g66"
     transform="matrix(0.54117647,0,0,0.54117647,118.06118,113.24235)">
    <g
       id="g64">
      <g
         id="g4">
        <path
           d="M 256.025,483.334 357.454,457.72 C 415.349,409.646 452.225,337.134 452.225,256.001 452.225,130.857 364.514,26.2 247.213,0.149 109.897,4.78 0,117.556 0,256 0,327.112 29,391.446 75.812,437.836 Z"
           fill="#cbe2ff"
           id="path2" />
      </g>
      <g
         id="g8">
        <path
           d="m 446.914,256 c 0,83.915 -40.381,158.391 -102.765,205.079 L 436.18,437.838 C 482.995,391.448 512,327.114 512,256 512,114.615 397.385,0 256,0 244.976,0 234.114,0.698 223.457,2.05 349.476,18.038 446.914,125.64 446.914,256 Z"
           fill="#bed8fb"
           id="path6" />
      </g>
      <g
         id="g62">
        <g
           id="g60">
          <g
             id="g52">
            <path
               d="m 319.621,96.952 c 0,-13.075 -10.599,-23.674 -23.674,-23.674 h -81.582 c -30.091,0 -54.485,24.394 -54.485,54.485 v 60.493 h 192.209 v -59.635 c 0,-13.075 -10.599,-23.674 -23.674,-23.674 h -0.798 c -4.416,0 -7.996,-3.579 -7.996,-7.995 z"
               fill="#365e7d"
               id="path10" />
            <path
               d="m 328.415,104.947 h -0.798 c -4.416,0 -7.996,-3.58 -7.996,-7.996 0,-13.075 -10.599,-23.674 -23.674,-23.674 h -8.945 v 114.978 h 65.086 V 128.62 c 10e-4,-13.073 -10.599,-23.673 -23.673,-23.673 z"
               fill="#2b4d66"
               id="path12" />
            <path
               d="m 425.045,372.355 c -6.259,-6.182 -14.001,-10.963 -22.79,-13.745 l -69.891,-22.128 -76.348,-2.683 -76.38,2.683 -69.891,22.128 c -23.644,7.486 -39.713,29.428 -39.713,54.229 v 19.094 c 44.789,47.328 107.451,77.568 177.183,79.92 78.128,-17.353 143.129,-69.576 177.83,-139.498 z"
               fill="#4a80aa"
               id="path14" />
            <path
               d="m 441.968,431.932 v -19.094 c 0,-17.536 -8.04,-33.635 -21.105,-44.213 -37.111,75.626 -110.422,130.268 -197.346,141.317 10.492,1.329 21.178,2.038 32.026,2.057 10.423,-0.016 20.708,-0.62 30.824,-1.782 61.031,-7.212 115.485,-35.894 155.601,-78.285 z"
               fill="#407093"
               id="path16" />
            <path
               d="m 261.796,508.168 c 15.489,-30.751 55.822,-118.067 44.321,-172.609 l -50.101,-19.499 -50.148,19.5 c -11.856,56.225 31.37,147.277 45.681,175.29 3.442,-0.826 6.859,-1.721 10.247,-2.682 z"
               fill="#e4f6ff"
               id="path18" />
            <path
               d="m 288.197,483.789 -20.314,-79.917 h -23.767 l -20.264,79.699 25.058,27.897 c 6.361,-1.457 12.634,-3.146 18.81,-5.057 z"
               fill="#e28086"
               id="path20" />
            <path
               d="m 249.302,511.905 c 2.075,0.054 4.154,0.091 6.241,0.095 2.415,-0.004 4.822,-0.046 7.222,-0.113 l 12.907,-14.259 c -10.159,3.564 -20.61,6.506 -31.309,8.779 z"
               fill="#dd636e"
               id="path22" />
            <g
               id="g44">
              <g
                 id="g38">
                <g
                   id="g36">
                  <g
                     id="g34">
                    <g
                       id="g32">
                      <g
                         id="g30">
                        <g
                           id="g28">
                          <g
                             id="g26">
                            <path
                               d="m 298.774,328.183 v -45.066 h -85.58 v 45.066 c 0,23.632 42.79,49.446 42.79,49.446 0,0 42.79,-25.814 42.79,-49.446 z"
                               fill="#ffddce"
                               id="path24" />
                          </g>
                        </g>
                      </g>
                    </g>
                  </g>
                </g>
              </g>
              <path
                 d="M 352.089,180.318 H 335.73 c -9.098,0 -16.473,-7.375 -16.473,-16.473 v -9.015 c 0,-11.851 -11.595,-20.23 -22.847,-16.511 -26.243,8.674 -54.579,8.676 -80.823,0.006 l -0.031,-0.01 c -11.252,-3.717 -22.845,4.662 -22.845,16.512 v 9.019 c 0,9.098 -7.375,16.473 -16.473,16.473 H 159.88 v 26.938 c 0,6.883 5.58,12.464 12.464,12.464 2.172,0 3.939,1.701 4.076,3.869 2.628,41.668 37.235,74.654 79.565,74.654 42.33,0 76.937,-32.986 79.565,-74.654 0.137,-2.167 1.904,-3.869 4.076,-3.869 6.883,0 12.464,-5.58 12.464,-12.464 v -26.939 z"
                 fill="#ffddce"
                 id="path40" />
              <path
                 d="m 335.73,180.318 c -9.098,0 -16.473,-7.375 -16.473,-16.473 v -9.015 c 0,-11.851 -11.595,-20.23 -22.847,-16.511 -3.108,1.027 -6.247,1.923 -9.407,2.707 v 88.972 c -0.438,28.948 -16.3,54.142 -39.725,67.758 2.861,0.311 5.763,0.486 8.706,0.486 42.33,0 76.937,-32.986 79.565,-74.654 0.137,-2.167 1.904,-3.869 4.076,-3.869 6.883,0 12.464,-5.58 12.464,-12.464 V 180.317 H 335.73 Z"
                 fill="#ffcbbe"
                 id="path42" />
            </g>
            <g
               fill="#f4fbff"
               id="g50">
              <path
                 d="m 213.194,316.06 -33.558,27.267 35.192,43.513 c 4.281,4.168 11.019,4.424 15.605,0.594 l 26.465,-22.107 z"
                 id="path46" />
              <path
                 d="m 298.79,316.06 -41.892,49.267 24.874,21.268 c 4.557,3.896 11.327,3.7 15.651,-0.453 l 34.94,-42.815 z"
                 id="path48" />
            </g>
          </g>
          <path
             d="m 213.194,316.06 -49.256,24.199 c -3.75,1.842 -5.256,6.404 -3.341,10.117 l 9.65,18.71 c 2.501,4.848 1.578,10.756 -2.282,14.61 -1.987,1.983 -4.139,4.131 -6.004,5.993 -3.338,3.332 -4.537,8.255 -3.067,12.737 11.651,35.517 67.725,89.828 88.946,109.478 1.427,0.038 2.857,0.064 4.29,0.08 C 236.741,482.051 182.208,368.329 213.194,316.06 Z"
             fill="#365e7d"
             id="path54" />
          <path
             d="m 344.019,383.695 c -3.861,-3.854 -4.783,-9.762 -2.282,-14.61 l 9.65,-18.71 c 1.915,-3.713 0.409,-8.275 -3.341,-10.117 L 298.79,316.06 c 30.978,52.255 -23.517,165.929 -38.923,195.9 1.448,-0.025 2.893,-0.061 4.335,-0.109 21.265,-19.695 77.248,-73.94 88.888,-109.424 1.47,-4.482 0.271,-9.405 -3.067,-12.737 -1.865,-1.863 -4.017,-4.012 -6.004,-5.995 z"
             fill="#365e7d"
             id="path56" />
          <path
             d="m 256.898,365.327 -26.06,21.764 13.278,16.781 h 23.767 l 13.279,-17.771 z"
             fill="#dd636e"
             id="path58" />
        </g>
      </g>
    </g>
  </g>
</svg>
