<?xml version="1.0" encoding="UTF-8" standalone="no"?>
<svg
   xmlns:dc="http://purl.org/dc/elements/1.1/"
   xmlns:cc="http://creativecommons.org/ns#"
   xmlns:rdf="http://www.w3.org/1999/02/22-rdf-syntax-ns#"
   xmlns:svg="http://www.w3.org/2000/svg"
   xmlns="http://www.w3.org/2000/svg"
   xmlns:sodipodi="http://sodipodi.sourceforge.net/DTD/sodipodi-0.dtd"
   xmlns:inkscape="http://www.inkscape.org/namespaces/inkscape"
   version="1.1"
   id="Capa_1"
   x="0px"
   y="0px"
   viewBox="0 0 314.154 314.154"
   style="enable-background:new 0 0 314.154 314.154;"
   xml:space="preserve"
   sodipodi:docname="refreshing.svg"
   inkscape:version="1.0.2-2 (e86c870879, 2021-01-15)"><metadata
   id="metadata39"><rdf:RDF><cc:Work
       rdf:about=""><dc:format>image/svg+xml</dc:format><dc:type
         rdf:resource="http://purl.org/dc/dcmitype/StillImage" /></cc:Work></rdf:RDF></metadata><defs
   id="defs37" /><sodipodi:namedview
   pagecolor="#ffffff"
   bordercolor="#666666"
   borderopacity="1"
   objecttolerance="10"
   gridtolerance="10"
   guidetolerance="10"
   inkscape:pageopacity="0"
   inkscape:pageshadow="2"
   inkscape:window-width="1920"
   inkscape:window-height="1017"
   id="namedview35"
   showgrid="false"
   inkscape:zoom="1.3528397"
   inkscape:cx="119.73472"
   inkscape:cy="222.14042"
   inkscape:window-x="-8"
   inkscape:window-y="-8"
   inkscape:window-maximized="1"
   inkscape:current-layer="Capa_1" />
<path
   d="m 265.85893,146.33359 c -4.83321,-3.22401 -11.36397,-1.91841 -14.58588,2.9148 l -0.31272,0.46908 C 247.15574,97.755376 203.66596,56.63978 150.74956,56.63978 95.341883,56.640481 50.264639,101.71773 50.264639,157.1254 c 0,55.40768 45.077244,100.48493 100.484921,100.48493 7.7452,0 14.02354,-6.27834 14.02354,-14.02353 0,-7.7452 -6.27834,-14.02354 -14.02354,-14.02354 -39.94253,-7e-4 -72.437855,-32.49603 -72.437855,-72.43786 0,-39.94182 32.495325,-72.437853 72.437855,-72.437853 37.02073,0 67.63901,27.917353 71.92039,63.804273 -3.37476,-4.20075 -9.45607,-5.20414 -14.02353,-2.15823 -4.83321,3.22261 -6.1381,9.75337 -2.91549,14.58588 l 20.82635,31.23111 c 2.45762,3.68538 6.45643,5.88568 10.69645,5.88568 4.24001,0 8.23812,-2.201 10.69434,-5.88568 l 20.82635,-31.23111 c 3.22191,-4.83321 1.91702,-11.36327 -2.91549,-14.58588 z"
   id="path2"
   style="stroke-width:0.701177" />
<g
   id="g4">
</g>
<g
   id="g6">
</g>
<g
   id="g8">
</g>
<g
   id="g10">
</g>
<g
   id="g12">
</g>
<g
   id="g14">
</g>
<g
   id="g16">
</g>
<g
   id="g18">
</g>
<g
   id="g20">
</g>
<g
   id="g22">
</g>
<g
   id="g24">
</g>
<g
   id="g26">
</g>
<g
   id="g28">
</g>
<g
   id="g30">
</g>
<g
   id="g32">
</g>
</svg>
