<?xml version="1.0" encoding="UTF-8" standalone="no"?>
<svg
   xmlns:dc="http://purl.org/dc/elements/1.1/"
   xmlns:cc="http://creativecommons.org/ns#"
   xmlns:rdf="http://www.w3.org/1999/02/22-rdf-syntax-ns#"
   xmlns:svg="http://www.w3.org/2000/svg"
   xmlns="http://www.w3.org/2000/svg"
   xmlns:sodipodi="http://sodipodi.sourceforge.net/DTD/sodipodi-0.dtd"
   xmlns:inkscape="http://www.inkscape.org/namespaces/inkscape"
   version="1.1"
   id="Capa_1"
   x="0px"
   y="0px"
   viewBox="0 0 512 512"
   style="enable-background:new 0 0 512 512;"
   xml:space="preserve"
   sodipodi:docname="sad.svg"
   inkscape:version="1.0.2-2 (e86c870879, 2021-01-15)"><metadata
   id="metadata61"><rdf:RDF><cc:Work
       rdf:about=""><dc:format>image/svg+xml</dc:format><dc:type
         rdf:resource="http://purl.org/dc/dcmitype/StillImage" /></cc:Work></rdf:RDF></metadata><defs
   id="defs59" /><sodipodi:namedview
   pagecolor="#ffffff"
   bordercolor="#666666"
   borderopacity="1"
   objecttolerance="10"
   gridtolerance="10"
   guidetolerance="10"
   inkscape:pageopacity="0"
   inkscape:pageshadow="2"
   inkscape:window-width="1920"
   inkscape:window-height="1017"
   id="namedview57"
   showgrid="false"
   inkscape:zoom="0.58695387"
   inkscape:cx="405.71183"
   inkscape:cy="300.92067"
   inkscape:window-x="-8"
   inkscape:window-y="-8"
   inkscape:window-maximized="1"
   inkscape:current-layer="Capa_1" />
<circle
   style="fill:#ffd93b;stroke-width:0.720485"
   cx="259.40741"
   cy="256"
   r="184.44412"
   id="circle2" />
<path
   style="fill:#f4c534;stroke-width:0.720485"
   d="m 443.85154,256 c 0,101.90538 -82.59638,184.44412 -184.44412,184.44412 -57.98462,0 -109.74425,-26.74439 -143.57822,-68.64779 31.6437,25.59162 71.93321,40.8659 115.79633,40.8659 101.84773,0 184.44412,-82.53875 184.44412,-184.44412 0,-43.86312 -15.27428,-84.15264 -40.8659,-115.79633 41.84576,33.83397 68.64779,85.5936 68.64779,143.57822 z"
   id="path4" />
<path
   style="fill:#3e4347;stroke-width:0.720485"
   d="m 317.46121,362.74704 c 8.99165,2.3286 17.89108,-4.43819 17.53372,-13.71803 -1.52167,-39.56327 -34.15675,-72.59029 -75.58751,-72.59029 -41.51145,0 -74.13501,33.11924 -75.58751,72.71709 -0.3343,9.23373 8.48443,16.02358 17.42997,13.72956 39.72466,-10.14443 78.43487,-9.93693 116.21133,-0.13833 z"
   id="path6" />
<path
   style="fill:#e24b4b;stroke-width:0.720485"
   d="m 301.82957,359.28871 c 0.415,-1.91361 0.66861,-3.88485 0.66861,-5.9368 0,-15.43566 -12.49609,-27.93175 -27.87412,-27.93175 -7.63137,0 -14.47886,2.99721 -19.44733,7.90804 -3.38916,-1.41791 -7.06651,-2.2018 -10.97442,-2.2018 -15.37803,0 -27.87412,12.49609 -27.87412,27.87412 0,0.17291 0.0461,0.3343 0.0576,0.50722 29.00384,-5.51027 57.4774,-5.47569 85.44374,-0.21903 z"
   id="path8" />
<path
   style="fill:#65b1ef;stroke-width:0.720485"
   d="m 399.13537,323.72558 c 0,-13.14165 -23.79329,-53.53491 -23.79329,-53.53491 0,0 -23.79329,40.39326 -23.79329,53.53491 0,13.14164 10.65165,23.79329 23.79329,23.79329 13.14164,0 23.79329,-10.65165 23.79329,-23.79329 z"
   id="path10" />
<g
   id="g20"
   transform="matrix(0.72048485,0,0,0.72048485,74.963301,71.555879)">
	<path
   style="fill:#3e4347"
   d="M 420.432,271.312 391.84,240.128 c -32.88,-35.744 -92.016,-36.784 -92.672,-36.784 l -16.24,-0.128 11.952,-11.056 c 15.2,-14.288 31.328,-19.888 47.568,-16.64 36,7.024 59.136,55.36 60.048,57.44 z"
   id="path12" />
	<path
   style="fill:#3e4347"
   d="m 276.032,47.088 c 65.568,73.744 85.584,77.392 108.16,97.6 -21.824,-0.032 -49.824,-9.904 -71.52,-29.488 -26.768,-25.216 -36.88,-51.728 -36.64,-68.112 z"
   id="path14" />
	<path
   style="fill:#3e4347"
   d="m 89.872,271.312 28.592,-31.184 c 32.88,-35.744 92.016,-36.784 92.672,-36.784 l 16.24,-0.128 -11.952,-11.056 c -15.2,-14.288 -31.328,-19.888 -47.568,-16.64 -36,7.024 -59.136,55.36 -60.048,57.44 z"
   id="path16" />
	<path
   style="fill:#3e4347"
   d="m 234.272,47.088 c -65.568,73.744 -85.584,77.392 -108.16,97.6 21.824,-0.032 49.824,-9.904 71.52,-29.488 26.784,-25.216 36.88,-51.728 36.64,-68.112 z"
   id="path18" />
</g>
<g
   style="opacity:0.2"
   id="g24"
   transform="matrix(0.72048485,0,0,0.72048485,74.963301,71.555879)">
	<path
   style="fill:#ffffff"
   d="m 434.736,364.736 c -4.624,5.504 -11.36,7.76 -14.688,4.736 -3.488,-2.864 -2.4,-9.744 2.368,-15.264 4.64,-5.648 11.216,-7.76 14.688,-4.736 3.488,2.88 2.4,9.76 -2.368,15.264 z"
   id="path22" />
</g>
<g
   id="g26">
</g>
<g
   id="g28">
</g>
<g
   id="g30">
</g>
<g
   id="g32">
</g>
<g
   id="g34">
</g>
<g
   id="g36">
</g>
<g
   id="g38">
</g>
<g
   id="g40">
</g>
<g
   id="g42">
</g>
<g
   id="g44">
</g>
<g
   id="g46">
</g>
<g
   id="g48">
</g>
<g
   id="g50">
</g>
<g
   id="g52">
</g>
<g
   id="g54">
</g>
</svg>
