<?xml version="1.0" encoding="UTF-8" standalone="no"?>
<svg
   xmlns:dc="http://purl.org/dc/elements/1.1/"
   xmlns:cc="http://creativecommons.org/ns#"
   xmlns:rdf="http://www.w3.org/1999/02/22-rdf-syntax-ns#"
   xmlns:svg="http://www.w3.org/2000/svg"
   xmlns="http://www.w3.org/2000/svg"
   xmlns:sodipodi="http://sodipodi.sourceforge.net/DTD/sodipodi-0.dtd"
   xmlns:inkscape="http://www.inkscape.org/namespaces/inkscape"
   id="Capa_1"
   enable-background="new 0 0 495.069 495.069"
   height="512"
   viewBox="0 0 495.069 495.069"
   width="512"
   version="1.1"
   sodipodi:docname="smile.svg"
   inkscape:version="1.0.2-2 (e86c870879, 2021-01-15)">
  <metadata
     id="metadata39">
    <rdf:RDF>
      <cc:Work
         rdf:about="">
        <dc:format>image/svg+xml</dc:format>
        <dc:type
           rdf:resource="http://purl.org/dc/dcmitype/StillImage" />
      </cc:Work>
    </rdf:RDF>
  </metadata>
  <defs
     id="defs37" />
  <sodipodi:namedview
     pagecolor="#ffffff"
     bordercolor="#666666"
     borderopacity="1"
     objecttolerance="10"
     gridtolerance="10"
     guidetolerance="10"
     inkscape:pageopacity="0"
     inkscape:pageshadow="2"
     inkscape:window-width="1920"
     inkscape:window-height="1017"
     id="namedview35"
     showgrid="false"
     inkscape:zoom="0.58695387"
     inkscape:cx="99.821445"
     inkscape:cy="402.21879"
     inkscape:window-x="-8"
     inkscape:window-y="-8"
     inkscape:window-maximized="1"
     inkscape:current-layer="Capa_1" />
  <circle
     cx="249.18137"
     cy="247.534"
     fill="#fee565"
     r="184.93384"
     id="circle2"
     style="stroke-width:0.747105" />
  <path
     d="m 121.7081,247.534 c 0,-92.36308 67.72581,-168.909943 156.21664,-182.713451 -9.36347,-1.46059 -18.96974,-2.220396 -28.74336,-2.220396 -102.13596,0 -184.933854,82.797897 -184.933854,184.933847 0,102.13595 82.797894,184.93384 184.933854,184.93384 9.77287,0 19.38512,-0.76055 28.74859,-2.22114 C 189.43914,416.44319 121.7081,339.89782 121.7081,247.534 Z"
     fill="#fdd62f"
     id="path4"
     style="stroke-width:0.747105" />
  <g
     id="g8"
     transform="matrix(0.74710483,0,0,0.74710483,64.247526,62.600153)">
    <path
       d="m 247.534,367.184 c -21.611,0 -42.337,-6.563 -59.938,-18.98 -17.203,-12.136 -30.189,-28.929 -37.556,-48.564 -1.455,-3.878 0.509,-8.202 4.388,-9.656 3.876,-1.456 8.201,0.508 9.656,4.388 12.973,34.58 46.509,57.813 83.45,57.813 36.941,0 70.477,-23.233 83.45,-57.813 1.455,-3.878 5.779,-5.844 9.656,-4.388 3.878,1.455 5.843,5.778 4.388,9.656 -7.366,19.635 -20.353,36.429 -37.556,48.564 -17.6,12.417 -38.327,18.98 -59.938,18.98 z"
       fill="#685e67"
       id="path6" />
  </g>
  <g
     id="g12"
     transform="matrix(0.74710483,0,0,0.74710483,64.247526,62.600153)">
    <path
       d="m 195.509,219.679 c -4.142,0 -7.5,-3.358 -7.5,-7.5 0,-16.707 -13.592,-30.298 -30.299,-30.298 -16.707,0 -30.299,13.592 -30.299,30.298 0,4.142 -3.358,7.5 -7.5,7.5 -4.142,0 -7.5,-3.358 -7.5,-7.5 0,-24.978 20.321,-45.298 45.299,-45.298 24.978,0 45.299,20.321 45.299,45.298 0,4.142 -3.357,7.5 -7.5,7.5 z"
       fill="#685e67"
       id="path10" />
  </g>
  <g
     id="g16"
     transform="matrix(0.74710483,0,0,0.74710483,64.247526,62.600153)">
    <path
       d="m 376.157,219.679 c -4.142,0 -7.5,-3.358 -7.5,-7.5 0,-16.707 -13.592,-30.298 -30.299,-30.298 -16.707,0 -30.299,13.592 -30.299,30.298 0,4.142 -3.358,7.5 -7.5,7.5 -4.142,0 -7.5,-3.358 -7.5,-7.5 0,-24.978 20.321,-45.298 45.299,-45.298 24.978,0 45.299,20.321 45.299,45.298 0,4.142 -3.358,7.5 -7.5,7.5 z"
       fill="#685e67"
       id="path14" />
  </g>
  <g
     id="g20"
     transform="matrix(0.74710483,0,0,0.74710483,64.247526,62.600153)">
    <path
       d="m 42.691,288.007 c -0.813,0 -1.64,-0.133 -2.452,-0.414 -3.915,-1.354 -5.99,-5.625 -4.636,-9.54 l 11.058,-31.97 c 1.354,-3.915 5.625,-5.99 9.54,-4.636 3.915,1.354 5.99,5.625 4.636,9.54 l -11.058,31.97 c -1.074,3.102 -3.979,5.05 -7.088,5.05 z"
       fill="#f37e7f"
       id="path18" />
  </g>
  <g
     id="g24"
     transform="matrix(0.74710483,0,0,0.74710483,64.247526,62.600153)">
    <path
       d="m 77.412,288.007 c -0.813,0 -1.64,-0.133 -2.452,-0.414 -3.915,-1.354 -5.99,-5.625 -4.636,-9.54 l 11.058,-31.97 c 1.354,-3.915 5.624,-5.99 9.54,-4.636 3.915,1.354 5.99,5.625 4.636,9.54 L 84.5,282.957 c -1.074,3.102 -3.98,5.05 -7.088,5.05 z"
       fill="#f37e7f"
       id="path22" />
  </g>
  <g
     id="g28"
     transform="matrix(0.74710483,0,0,0.74710483,64.247526,62.600153)">
    <path
       d="m 407.6,288.007 c -0.813,0 -1.64,-0.133 -2.452,-0.414 -3.915,-1.354 -5.99,-5.625 -4.636,-9.54 l 11.058,-31.97 c 1.354,-3.915 5.625,-5.99 9.54,-4.636 3.915,1.354 5.99,5.625 4.636,9.54 l -11.058,31.97 c -1.074,3.102 -3.98,5.05 -7.088,5.05 z"
       fill="#f37e7f"
       id="path26" />
  </g>
  <g
     id="g32"
     transform="matrix(0.74710483,0,0,0.74710483,64.247526,62.600153)">
    <path
       d="m 442.321,288.007 c -0.813,0 -1.64,-0.133 -2.452,-0.414 -3.915,-1.354 -5.99,-5.625 -4.636,-9.54 l 11.058,-31.97 c 1.354,-3.915 5.626,-5.99 9.54,-4.636 3.915,1.354 5.99,5.625 4.636,9.54 l -11.058,31.97 c -1.074,3.102 -3.98,5.05 -7.088,5.05 z"
       fill="#f37e7f"
       id="path30" />
  </g>
</svg>
