<?xml version="1.0" encoding="UTF-8" standalone="no"?>
<svg
   xmlns:dc="http://purl.org/dc/elements/1.1/"
   xmlns:cc="http://creativecommons.org/ns#"
   xmlns:rdf="http://www.w3.org/1999/02/22-rdf-syntax-ns#"
   xmlns:svg="http://www.w3.org/2000/svg"
   xmlns="http://www.w3.org/2000/svg"
   xmlns:sodipodi="http://sodipodi.sourceforge.net/DTD/sodipodi-0.dtd"
   xmlns:inkscape="http://www.inkscape.org/namespaces/inkscape"
   height="512pt"
   viewBox="0 0 512 512"
   width="512pt"
   version="1.1"
   id="svg10"
   sodipodi:docname="wifi-signal.svg"
   inkscape:version="1.0.2-2 (e86c870879, 2021-01-15)">
  <metadata
     id="metadata16">
    <rdf:RDF>
      <cc:Work
         rdf:about="">
        <dc:format>image/svg+xml</dc:format>
        <dc:type
           rdf:resource="http://purl.org/dc/dcmitype/StillImage" />
      </cc:Work>
    </rdf:RDF>
  </metadata>
  <defs
     id="defs14" />
  <sodipodi:namedview
     pagecolor="#ffffff"
     bordercolor="#666666"
     borderopacity="1"
     objecttolerance="10"
     gridtolerance="10"
     guidetolerance="10"
     inkscape:pageopacity="0"
     inkscape:pageshadow="2"
     inkscape:window-width="1920"
     inkscape:window-height="1017"
     id="namedview12"
     showgrid="false"
     inkscape:zoom="1.2451172"
     inkscape:cx="341.33333"
     inkscape:cy="277.08235"
     inkscape:window-x="-8"
     inkscape:window-y="-8"
     inkscape:window-maximized="1"
     inkscape:current-layer="svg10" />
  <path
     d="m60 512c33.089844 0 61-26.910156 61-60s-27.910156-61-61-61-60 27.910156-60 61 26.910156 60 60 60zm0 0"
     id="path2"
     style="fill:#ffffff" />
  <path
     d="m15 300h30c91.125 0 167 75.871094 167 167v30c0 8.285156 6.714844 15 15 15h30c8.285156 0 15-6.714844 15-15v-30c0-124.265625-102.734375-227-227-227h-30c-8.285156 0-15 6.714844-15 15v30c0 8.285156 6.714844 15 15 15zm0 0"
     id="path4"
     style="fill:#ffffff" />
  <path
     d="m15 180h30c157.402344 0 287 129.597656 287 287v30c0 8.285156 6.714844 15 15 15h30c8.285156 0 15-6.714844 15-15v-30c0-190.539062-156.460938-347-347-347h-30c-8.285156 0-15 6.714844-15 15v30c0 8.285156 6.714844 15 15 15zm0 0"
     id="path6"
     style="fill:#ffffff" />
  <path
     d="m45 0h-30c-8.285156 0-15 6.714844-15 15v30c0 8.285156 6.714844 15 15 15h30c223.675781 0 407 183.324219 407 407v30c0 8.285156 6.714844 15 15 15h30c8.285156 0 15-6.714844 15-15v-30c0-256.8125-210.1875-467-467-467zm0 0"
     id="path8"
     style="fill:#ffffff" />
</svg>
